#!OML:ASF I:\Actors\actors\Patient Classification 1\Patient 1\Session 1\Subject1.ASF
:FULLY-SPECIFIED
:DEGREES
851
root 0.795783 17.3952 9.71427 8.48795 -2.44752 -8.53834
lowerback -5.78026 3.35768 6.43009
upperback -8.47383 4.45664 2.39537
thorax -5.34276 1.94249 -1.02262
lowerneck -2.50534 -3.88341 -1.51476
upperneck 7.31118 -5.60254 6.3132
head 3.04724 -2.62383 2.13044
rclavicle -5.39203e-015 1.06847e-014
rhumerus -35.48 45.3096 -112.623
rradius 99.5557
rwrist -5.69716
rhand 4.10506 -46.9878
rfingers 7.12502
rthumb 29.516 -794.662
lclavicle -5.39203e-015 1.06847e-014
lhumerus -52.5971 -2.28046 93.9514
lradius 110.218
lwrist 74.646
lhand -14.9699 7.08821
lfingers 7.12502
lthumb 11.1938 36.7696
rfemur -0.374307 24.9823 25.6714
rtibia 2.2821
rfoot -14.1137 -27.4237
rtoes 1.91045
lfemur 10.9198 -44.7973 -16.3962
ltibia -4.78907
lfoot -25.2913 53.0029
ltoes 10.1495
852
root 0.796671 17.3959 9.71124 8.48512 -2.39137 -8.56133
lowerback -5.70568 3.34114 6.40703
upperback -8.49997 4.44444 2.40375
thorax -5.4158 1.93554 -1.00681
lowerneck -2.48407 -4.02714 -1.59845
upperneck 7.23809 -5.79711 6.43412
head 3.03599 -2.72071 2.17867
rclavicle -3.90115e-015 -8.84592e-015
rhumerus -35.4793 45.4354 -112.653
rradius 99.5935
rwrist -5.74233
rhand 4.00714 -46.9957
rfingers 7.12502
rthumb 29.4225 -794.686
lclavicle -3.90115e-015 -8.84592e-015
lhumerus -52.618 -2.17479 93.8965
lradius 110.239
lwrist 74.6306
lhand -14.8059 7.13075
lfingers 7.12502
lthumb 11.352 36.8035
rfemur -0.386862 24.948 25.6973
rtibia 2.29516
rfoot -14.0841 -27.4458
rtoes 1.81651
lfemur 10.8248 -44.7138 -16.2905
ltibia -4.76553
lfoot -25.1034 52.9065
ltoes 9.96402
853
root 0.799313 17.3964 9.70746 8.50091 -2.31011 -8.56082
lowerback -5.62749 3.31132 6.38384
upperback -8.52562 4.41438 2.40106
thorax -5.49052 1.91928 -1.00294
lowerneck -2.31861 -4.21158 -1.73863
upperneck 6.92299 -6.03414 6.62519
head 2.92346 -2.84543 2.26126
rclavicle 2.84138e-014 3.67752e-015
rhumerus -35.4722 45.5687 -112.731
rradius 99.6142
rwrist -5.72402
rhand 3.86187 -46.8916
rfingers 7.12502
rthumb 29.2838 -794.606
lclavicle 2.84138e-014 3.67752e-015
lhumerus -52.6556 -2.08447 93.8564
lradius 110.277
lwrist 74.621
lhand -14.74 7.07213
lfingers 7.12502
lthumb 11.4155 36.7414
rfemur -0.439648 24.8657 25.6717
rtibia 2.33063
rfoot -14.1044 -27.4297
rtoes 1.82899
lfemur 10.7004 -44.6969 -16.2088
ltibia -4.72658
lfoot -24.9919 52.8435
ltoes 9.90627
854
root 0.80305 17.397 9.70381 8.52103 -2.20114 -8.54398
lowerback -5.55869 3.29037 6.38054
upperback -8.53949 4.39333 2.37708
thorax -5.54376 1.90645 -1.03095
lowerneck -2.29655 -4.38978 -1.84203
upperneck 6.72986 -6.27026 6.79682
head 2.8779 -2.96442 2.3288
rclavicle -2.02512e-015 4.01545e-014
rhumerus -35.3945 45.6114 -112.75
rradius 99.6185
rwrist -5.63756
rhand 3.86056 -46.7964
rfingers 7.12502
rthumb 29.2826 -794.511
lclavicle -2.02512e-015 4.01545e-014
lhumerus -52.689 -2.08612 93.841
lradius 110.323
lwrist 74.6325
lhand -14.7063 6.95952
lfingers 7.12502
lthumb 11.448 36.627
rfemur -0.481719 24.8297 25.628
rtibia 2.33763
rfoot -14.1762 -27.4802
rtoes 1.97827
lfemur 10.6051 -44.829 -16.1854
ltibia -4.68319
lfoot -25.0423 52.859
ltoes 10.0799
855
root 0.804513 17.3977 9.70068 8.51474 -2.1206 -8.57561
lowerback -5.45928 3.28184 6.39031
upperback -8.55183 4.39265 2.38418
thorax -5.6133 1.90361 -1.03521
lowerneck -2.49413 -4.5663 -1.87476
upperneck 6.82201 -6.51395 6.81499
head 2.96076 -3.08012 2.32751
rclavicle -6.72141e-015 3.47873e-016
rhumerus -35.3544 45.6277 -112.75
rradius 99.6248
rwrist -5.58348
rhand 3.95418 -46.718
rfingers 7.12502
rthumb 29.372 -794.417
lclavicle -6.72141e-015 3.47873e-016
lhumerus -52.6942 -2.12062 93.8711
lradius 110.34
lwrist 74.6303
lhand -14.7528 6.99319
lfingers 7.12502
lthumb 11.4031 36.6631
rfemur -0.471025 24.8274 25.6697
rtibia 2.3154
rfoot -14.2039 -27.5584
rtoes 2.03593
lfemur 10.6251 -44.9937 -16.1658
ltibia -4.70157
lfoot -25.1263 52.9397
ltoes 10.2025
